<svg width="282" height="21" viewBox="0 0 282 21" fill="none" xmlns="http://www.w3.org/2000/svg">
<rect x="0.5" width="281" height="21" rx="10" fill="#0069B4"/>
<g clip-path="url(#clip0_10_1266)">
<path d="M120.763 14C120.73 14 120.698 14 120.661 14C120.5 13.9246 120.463 13.8404 120.537 13.6719C121.454 11.5085 122.371 9.34516 123.283 7.18176C123.316 7.09753 123.366 7.03103 123.459 7C123.486 7 123.514 7 123.542 7C123.629 7.03103 123.68 7.08866 123.712 7.16846C124.629 9.33629 125.546 11.5041 126.463 13.6719C126.532 13.8404 126.5 13.9246 126.334 14.0044C126.302 14.0044 126.27 14.0044 126.233 14.0044C126.154 13.9557 126.071 13.9113 125.993 13.8626C125.182 13.3749 124.366 12.8828 123.555 12.3908C123.518 12.3686 123.491 12.3553 123.449 12.3819C122.555 12.9227 121.661 13.4636 120.763 14Z" fill="white"/>
</g>
<path d="M131.508 9.824V10.32H135.476V9.824H131.508ZM131.356 11.192V11.704H135.644V11.192H131.356ZM134.02 9.984V13.496H134.564V9.984H134.02ZM132.38 10.008V11.464C132.38 11.904 132.212 12.752 131.404 13.248C131.54 13.328 131.724 13.496 131.804 13.608C132.708 13 132.9 11.952 132.9 11.464V10.008H132.38ZM130.516 7.736V8.168H132.764V7.736H130.516ZM134.204 7.736V8.168H136.468V7.736H134.204ZM136.236 6.624V12.864C136.236 12.984 136.196 13.032 136.068 13.032C135.94 13.04 135.508 13.04 135.068 13.024C135.156 13.192 135.236 13.472 135.26 13.632C135.868 13.632 136.268 13.624 136.508 13.52C136.748 13.416 136.828 13.224 136.828 12.864V6.624H136.236ZM130.564 6.624V7.088H132.564V8.864H130.564V9.32H133.132V6.624H130.564ZM136.524 6.624H133.836V9.328H136.524V8.872H134.412V7.088H136.524V6.624ZM130.204 6.624V13.648H130.796V6.624H130.204ZM141.724 12.744V13.288H144.516V12.744H141.724ZM141.412 10.4V13.648H141.988V10.952H144.236V13.616H144.828V10.4H141.412ZM140.868 9.056L140.94 9.648C141.932 9.584 143.364 9.472 144.716 9.368L144.724 8.832C143.3 8.928 141.812 9.008 140.868 9.056ZM143.516 7.768C144.044 8.448 144.58 9.36 144.772 9.96L145.3 9.672C145.084 9.08 144.532 8.184 143.996 7.52L143.516 7.768ZM142.428 6.28C142.204 7.176 141.772 8.456 141.412 9.232L141.924 9.376C142.3 8.616 142.756 7.392 143.084 6.416L142.428 6.28ZM137.844 7.936V8.504H140.484V7.936H137.844ZM139.06 6.28C138.78 7.8 138.284 9.952 137.924 11.168L138.42 11.44C138.796 10.104 139.308 7.944 139.636 6.344L139.06 6.28ZM138.244 10.928C139.14 11.448 140.18 12.256 140.652 12.856L141.02 12.368C140.54 11.776 139.476 11.008 138.58 10.504L138.244 10.928ZM140.252 7.936V8.064C140.06 10.776 139.22 12.48 137.892 13.184C138.02 13.304 138.18 13.52 138.268 13.664C139.74 12.784 140.604 11.088 140.82 7.992L140.46 7.92L140.356 7.936H140.252ZM145.868 11.536V12.024H153.132V11.536H145.868ZM147.868 7.016V7.456H153.092V7.016H147.868ZM150.796 10.984V12.992C150.796 13.096 150.764 13.128 150.628 13.128C150.5 13.136 150.044 13.144 149.54 13.128C149.612 13.28 149.708 13.488 149.732 13.64C150.396 13.648 150.804 13.64 151.06 13.56C151.308 13.472 151.38 13.32 151.38 13V10.984H150.796ZM147.244 12.368C147.668 12.632 148.18 13.04 148.412 13.328L148.852 12.944C148.596 12.664 148.076 12.272 147.644 12.024L147.244 12.368ZM146.14 6.768C146.54 7.064 147.012 7.504 147.22 7.808L147.636 7.44C147.428 7.128 146.948 6.72 146.54 6.44L146.14 6.768ZM148.852 6.408C149.036 6.648 149.22 6.976 149.3 7.2L149.82 7.056C149.74 6.832 149.54 6.512 149.348 6.288L148.852 6.408ZM149.076 8.848H151.844V9.208H149.076V8.848ZM149.076 9.528H151.844V9.888H149.076V9.528ZM149.076 8.184H151.844V8.528H149.076V8.184ZM148.516 7.856V10.224H152.428V7.856H148.516ZM147.516 8.368H145.9V8.856H146.964V10.096H147.516V8.368ZM150.132 7.168C150.1 7.384 150.02 7.72 149.956 7.952L150.428 8.032C150.516 7.824 150.62 7.536 150.724 7.232L150.132 7.168ZM151.596 6.272C151.492 6.488 151.276 6.816 151.124 7.048L151.588 7.168C151.764 6.96 151.972 6.688 152.164 6.4L151.596 6.272ZM147.516 9.888H147.1C146.692 10.16 146.228 10.432 145.852 10.624L146.092 11.128C146.516 10.848 146.916 10.584 147.308 10.312C147.724 10.808 148.324 11.016 149.172 11.04C150.108 11.072 152.06 11.064 153.028 11.024C153.052 10.872 153.132 10.648 153.188 10.536C152.164 10.592 150.084 10.616 149.156 10.584C148.42 10.56 147.828 10.352 147.516 9.888ZM158.748 6.296V7.824H159.324V6.296H158.748ZM157.012 7.56V8.096H161.164V7.56H157.012ZM158.004 8.968V9.504H159.932V8.968H158.004ZM157.7 8.968V10.744C157.7 11.552 157.62 12.568 156.892 13.296C157.02 13.36 157.252 13.536 157.356 13.632C158.14 12.856 158.268 11.664 158.268 10.76V8.968H157.7ZM155.308 10.504V12.408H155.7V10.504H155.308ZM154.604 7.368V7.856H156.412V7.368H154.604ZM156.244 7.368V13.008C156.244 13.104 156.212 13.136 156.116 13.136C156.028 13.144 155.716 13.144 155.372 13.136C155.444 13.272 155.524 13.488 155.54 13.624C156.028 13.624 156.316 13.616 156.508 13.536C156.684 13.448 156.748 13.296 156.748 13.008V7.368H156.244ZM154.372 7.368V10.28C154.372 11.256 154.324 12.496 153.78 13.368C153.9 13.424 154.116 13.552 154.204 13.64C154.78 12.736 154.868 11.32 154.868 10.28V7.368H154.372ZM153.796 9.896L153.86 10.408C154.748 10.344 156.004 10.248 157.22 10.152L157.212 9.672C155.948 9.76 154.652 9.848 153.796 9.896ZM155.116 8.352C155.316 8.696 155.5 9.16 155.564 9.464L155.972 9.296C155.908 8.992 155.716 8.536 155.492 8.2L155.116 8.352ZM155.348 6.28C155.284 6.632 155.14 7.16 155.012 7.496L155.54 7.608C155.668 7.304 155.836 6.832 155.98 6.4L155.348 6.28ZM159.612 8.968V12.576C159.612 13.12 159.652 13.256 159.764 13.368C159.884 13.472 160.052 13.512 160.204 13.512C160.292 13.512 160.484 13.512 160.58 13.512C160.724 13.512 160.876 13.48 160.964 13.416C161.068 13.344 161.14 13.24 161.18 13.072C161.22 12.92 161.244 12.464 161.244 12.104C161.108 12.056 160.932 11.968 160.82 11.872C160.82 12.28 160.812 12.584 160.788 12.728C160.772 12.856 160.756 12.928 160.716 12.952C160.684 12.984 160.62 13 160.556 13C160.492 13 160.396 13 160.348 13C160.292 13 160.252 12.984 160.22 12.96C160.196 12.928 160.18 12.808 160.18 12.608V8.968H159.612Z" fill="white"/>
<defs>
<clipPath id="clip0_10_1266">
<rect width="6" height="7" fill="white" transform="translate(120.5 7)"/>
</clipPath>
</defs>
</svg>
