<svg width="52" height="15" viewBox="0 0 52 15" fill="none" xmlns="http://www.w3.org/2000/svg">
<rect width="52" height="15" rx="7.5" fill="black"/>
<path d="M12.36 8.264H15.6V8.928H12.36V8.264ZM12.36 7.184H15.6V7.84H12.36V7.184ZM11.768 6.752V9.36H16.216V6.752H11.768ZM10.456 4.304V4.832H17.552V4.304H10.456ZM13.672 3.28V6.504H14.272V3.28H13.672ZM13.328 4.456C12.688 5.352 11.432 6.216 10.28 6.608C10.408 6.728 10.584 6.944 10.672 7.088C11.848 6.624 13.112 5.688 13.832 4.656L13.328 4.456ZM14.6 4.464L14.112 4.656C14.84 5.664 16.12 6.584 17.312 7.032C17.4 6.872 17.576 6.648 17.712 6.536C16.528 6.16 15.248 5.336 14.6 4.464ZM10.584 9.848V10.384H17.44V9.848H10.584ZM20.072 6.84V10.664H20.648V7.32H24.136V10.664H24.736V6.84H20.072ZM18.464 5.784V6.28H25.528V5.784H18.464ZM19.048 4.712V5.192H25.064V4.712H19.048ZM20.464 7.864V8.288H24.392V7.864H20.464ZM20.464 8.856V9.272H24.392V8.856H20.464ZM20.408 9.864V10.344H24.392V9.864H20.408ZM24.6 3.344C23.328 3.608 20.888 3.72 18.936 3.736C18.992 3.864 19.048 4.072 19.064 4.208C21.04 4.2 23.496 4.08 24.984 3.784L24.6 3.344ZM21.32 3.896C20.896 5.664 19.96 7.416 18.264 8.392C18.384 8.504 18.56 8.728 18.64 8.856C20.432 7.792 21.408 5.96 21.944 4.024L21.32 3.896ZM26.272 8.48L26.472 9.08C27.128 8.888 27.976 8.624 28.792 8.368L28.72 7.832C27.808 8.08 26.888 8.336 26.272 8.48ZM28.456 3.32V10.64H29.04V3.32H28.456ZM26.816 4.208V8.552H27.392V4.208H26.816ZM30.328 4.768V5.336H33.704V4.768H30.328ZM30.544 3.28C30.248 4.616 29.728 5.912 29.016 6.728C29.16 6.824 29.408 7.04 29.504 7.16C30.24 6.256 30.808 4.872 31.16 3.4L30.544 3.28ZM32.664 5.04C32.176 7.584 31.168 9.208 29.112 10.128C29.224 10.256 29.408 10.528 29.464 10.664C31.608 9.616 32.704 7.88 33.264 5.136L32.664 5.04ZM30.544 5.232L30 5.336C30.528 7.832 31.52 9.768 33.384 10.664C33.472 10.504 33.664 10.272 33.8 10.152C32.008 9.384 31.008 7.512 30.544 5.232ZM35.4 4.576V4.984H40.984V3.728H34.856V4.128H40.424V4.576H35.4ZM35.216 4.576C35.088 5.008 34.912 5.52 34.752 5.88L35.304 5.92C35.448 5.568 35.632 5.04 35.784 4.576H35.216ZM35.184 5.408L35.056 5.816H41.112V5.408H35.184ZM40.92 5.408V5.488C40.872 5.928 40.832 6.112 40.768 6.176C40.728 6.216 40.68 6.224 40.584 6.224C40.496 6.224 40.28 6.216 40.032 6.192C40.088 6.304 40.136 6.48 40.144 6.592C40.432 6.616 40.712 6.616 40.848 6.608C41.008 6.6 41.144 6.56 41.24 6.464C41.368 6.336 41.424 6.096 41.472 5.608C41.48 5.536 41.488 5.408 41.488 5.408H40.92ZM36.824 3.288V4.712C36.824 5.536 36.56 6.208 34.448 6.608C34.552 6.712 34.68 6.936 34.728 7.072C37.048 6.624 37.376 5.784 37.376 4.728V3.288H36.824ZM38.616 3.288V6.416H39.184V3.288H38.616ZM36.032 7.688H40.056V8.184H36.032V7.688ZM36.032 8.56H40.056V9.064H36.032V8.56ZM36.032 6.824H40.056V7.312H36.032V6.824ZM35.448 6.432V9.448H40.656V6.432H35.448ZM38.648 9.848C39.536 10.112 40.416 10.416 40.928 10.656L41.576 10.336C40.992 10.096 40.016 9.776 39.12 9.536L38.648 9.848ZM36.8 9.528C36.224 9.816 35.256 10.064 34.424 10.224C34.56 10.328 34.768 10.552 34.864 10.672C35.664 10.472 36.688 10.128 37.336 9.768L36.8 9.528Z" fill="#FFF800"/>
</svg>
